<svg width="40" height="40" viewBox="0 0 40 40" fill="none" xmlns="http://www.w3.org/2000/svg">
<path d="M20 1C10.6112 1 3 8.61116 3 18C3 27.3888 10.6112 35 20 35C29.3888 35 37 27.3888 37 18C37 8.61116 29.3888 1 20 1ZM20 33C11.1634 33 4 25.8366 4 18C4 10.1634 11.1634 3 20 3C28.8366 3 36 10.1634 36 18C36 25.8366 28.8366 33 20 33Z" fill="url(#paint0_linear)"/>
<path d="M20 5C15.5899 5 12 8.58986 12 13C12 17.4101 15.5899 21 20 21C24.4101 21 28 17.4101 28 13C28 8.58986 24.4101 5 20 5ZM20 19C16.6863 19 14 16.3137 14 13C14 9.68629 16.6863 7 20 7C23.3137 7 26 9.68629 26 13C26 16.3137 23.3137 19 20 19Z" fill="url(#paint0_linear)"/>
<path d="M20 23C17.7909 23 16 24.7909 16 27C16 29.2091 17.7909 31 20 31C22.2091 31 24 29.2091 24 27C24 24.7909 22.2091 23 20 23ZM20 29C18.8954 29 18 28.1046 18 27C18 25.8954 18.8954 25 20 25C21.1046 25 22 25.8954 22 27C22 28.1046 21.1046 29 20 29Z" fill="url(#paint0_linear)"/>
<defs>
<linearGradient id="paint0_linear" x1="3" y1="1" x2="37" y2="35" gradientUnits="userSpaceOnUse">
<stop offset="0.259336" stop-color="#FFDB6E"/>
<stop offset="1" stop-color="#FFBC5E"/>
</linearGradient>
</defs>
</svg>
